<?xml version="1.0" standalone="no"?>
<!DOCTYPE svg PUBLIC "-//W3C//DTD SVG 20010904//EN"
 "http://www.w3.org/TR/2001/REC-SVG-20010904/DTD/svg10.dtd">
<svg version="1.0" xmlns="http://www.w3.org/2000/svg"
 width="4167.000000pt" height="4167.000000pt" viewBox="0 0 4167.000000 4167.000000"
 preserveAspectRatio="xMidYMid meet">
<metadata>
Created by potrace 1.14, written by Peter Selinger 2001-2017
</metadata>
<g transform="translate(0.000000,4167.000000) scale(0.100000,-0.100000)"
fill="#000000" stroke="none">
<path d="M19977 39354 c-1 -2 -88 -5 -192 -9 -105 -3 -226 -8 -270 -10 -182
-11 -264 -16 -330 -21 -38 -3 -95 -7 -125 -9 -66 -5 -178 -14 -240 -20 -25 -3
-70 -7 -100 -10 -30 -3 -77 -8 -105 -10 -27 -3 -70 -8 -95 -10 -42 -4 -159
-18 -262 -31 -71 -8 -478 -65 -501 -70 -12 -2 -39 -6 -62 -9 -37 -6 -364 -59
-430 -70 -16 -3 -57 -10 -90 -16 -111 -19 -660 -130 -690 -139 -16 -5 -43 -11
-60 -14 -16 -3 -39 -7 -50 -10 -11 -3 -78 -20 -150 -36 -306 -72 -628 -157
-950 -251 -700 -204 -1693 -569 -2223 -815 -41 -19 -76 -34 -78 -34 -3 0 -39
-17 -231 -106 -43 -20 -106 -49 -140 -65 -251 -115 -732 -365 -1133 -587 -844
-469 -1877 -1176 -2625 -1797 -27 -22 -104 -86 -170 -141 -66 -54 -138 -116
-160 -136 -22 -20 -56 -49 -75 -65 -20 -15 -54 -44 -75 -64 -22 -20 -89 -80
-150 -134 -60 -55 -115 -104 -121 -109 -6 -6 -60 -56 -120 -111 -406 -376
-862 -843 -1244 -1275 -36 -40 -70 -78 -75 -84 -63 -67 -462 -546 -587 -706
-214 -273 -368 -478 -551 -734 -120 -169 -290 -415 -312 -454 -5 -9 -12 -19
-15 -22 -3 -3 -22 -30 -41 -60 -20 -30 -63 -95 -95 -145 -32 -49 -63 -98 -69
-107 -5 -10 -28 -46 -49 -80 -143 -228 -115 -183 -249 -408 -185 -311 -318
-548 -474 -845 -141 -269 -389 -777 -473 -970 -10 -22 -29 -65 -43 -95 -43
-95 -197 -459 -248 -590 -27 -69 -54 -134 -59 -145 -27 -57 -218 -578 -295
-805 -23 -69 -45 -132 -48 -140 -17 -49 -129 -410 -196 -635 -56 -191 -188
-685 -206 -775 -2 -8 -17 -71 -33 -140 -48 -203 -76 -329 -87 -389 -3 -19 -7
-37 -9 -40 -2 -3 -7 -22 -10 -41 -3 -19 -8 -46 -11 -60 -2 -14 -12 -59 -20
-100 -8 -41 -17 -86 -20 -100 -3 -14 -9 -47 -15 -75 -5 -27 -12 -67 -16 -89
-6 -38 -9 -58 -19 -106 -22 -113 -90 -550 -120 -780 -18 -134 -45 -356 -50
-415 -4 -38 -8 -81 -10 -95 -2 -14 -7 -56 -10 -95 -4 -38 -8 -81 -10 -95 -2
-14 -7 -65 -10 -115 -4 -49 -8 -106 -10 -125 -4 -40 -15 -179 -20 -260 -22
-363 -24 -398 -32 -675 -12 -406 -6 -1190 11 -1435 2 -25 7 -103 11 -175 4
-71 8 -148 10 -170 2 -22 6 -87 9 -145 4 -58 9 -116 11 -130 2 -14 7 -70 10
-125 4 -55 8 -102 10 -105 1 -3 6 -47 9 -98 4 -51 9 -101 11 -110 1 -9 6 -48
9 -87 4 -38 14 -119 21 -180 8 -60 17 -128 20 -150 2 -22 7 -60 10 -85 4 -25
8 -61 11 -80 2 -19 6 -48 9 -65 3 -16 7 -48 10 -70 3 -22 15 -98 26 -170 11
-71 22 -146 25 -165 82 -532 301 -1514 454 -2030 11 -36 45 -150 76 -255 96
-329 369 -1134 423 -1250 5 -11 31 -74 57 -140 121 -311 294 -718 395 -933 21
-46 39 -85 39 -87 0 -7 164 -345 267 -550 125 -249 190 -372 341 -645 41 -74
88 -160 105 -190 16 -30 38 -67 48 -82 11 -14 19 -28 19 -31 0 -7 290 -486
366 -604 32 -51 64 -101 69 -111 12 -21 306 -463 317 -477 7 -8 154 -217 232
-330 183 -263 786 -1026 992 -1255 17 -19 82 -93 145 -165 62 -71 115 -132
118 -135 3 -3 29 -30 56 -60 186 -206 320 -345 615 -640 184 -184 360 -358
390 -386 188 -173 326 -298 395 -359 43 -38 97 -86 120 -106 41 -37 254 -219
296 -253 13 -11 49 -40 79 -66 45 -38 253 -205 409 -328 18 -15 45 -36 60 -48
39 -31 395 -297 421 -314 12 -8 28 -20 34 -25 9 -8 211 -152 302 -215 85 -59
545 -366 614 -409 47 -30 101 -64 120 -76 160 -102 704 -425 717 -425 3 0 17
-8 31 -18 25 -18 71 -43 260 -143 42 -23 87 -48 99 -55 13 -8 159 -83 325
-168 399 -202 730 -356 1088 -508 91 -39 179 -76 195 -83 184 -82 803 -313
1160 -433 257 -87 750 -240 825 -257 8 -2 56 -14 105 -28 127 -36 318 -87 341
-92 10 -2 102 -24 204 -50 102 -25 203 -50 225 -55 48 -10 182 -39 210 -47 11
-2 29 -6 40 -8 11 -2 99 -20 195 -40 96 -20 186 -39 200 -41 14 -3 72 -14 130
-24 58 -11 117 -22 133 -24 15 -3 35 -7 45 -10 9 -2 37 -7 62 -10 43 -6 55 -8
125 -21 17 -3 77 -12 135 -20 58 -9 112 -18 120 -20 8 -2 42 -7 75 -10 33 -4
67 -8 75 -10 16 -5 55 -10 135 -20 28 -3 97 -12 155 -20 116 -15 166 -21 255
-30 33 -3 76 -8 95 -10 36 -5 100 -11 200 -20 30 -3 78 -7 105 -10 84 -8 156
-14 245 -20 47 -3 103 -8 125 -10 22 -2 94 -7 160 -10 66 -4 149 -8 185 -10
437 -26 1317 -26 1830 0 230 12 289 15 340 19 30 3 93 8 140 11 84 5 152 11
240 20 25 2 79 7 120 10 41 3 89 8 105 10 29 4 88 11 170 20 71 8 139 16 175
21 19 3 60 7 90 10 30 2 138 18 240 35 102 17 199 32 215 35 17 2 54 9 83 15
29 6 65 12 80 14 15 2 90 16 167 30 77 14 154 29 170 31 17 3 62 12 100 21 39
8 81 17 95 19 14 3 68 14 120 25 52 11 104 22 115 25 11 2 31 6 45 9 14 3 34
7 45 9 11 3 43 10 70 16 28 6 59 13 70 16 52 10 308 71 465 111 96 24 186 46
200 49 14 3 39 9 56 15 17 5 40 11 50 14 10 2 69 18 129 35 61 17 117 33 125
34 219 52 1228 372 1435 456 11 4 103 38 205 75 243 88 718 278 905 360 17 8
80 35 140 60 61 26 146 64 190 85 44 20 114 52 155 71 84 38 473 233 595 299
44 23 118 63 165 88 160 86 514 287 652 371 14 9 48 29 75 45 107 64 361 222
405 253 26 18 50 33 52 33 14 0 674 449 762 518 l29 23 -30 -15 c-31 -14 -123
-43 -166 -51 -13 -3 -35 -7 -49 -10 -69 -13 -210 -23 -440 -29 -176 -5 -300
-12 -400 -21 -289 -27 -1334 -27 -1640 0 -25 2 -92 7 -150 10 -58 3 -121 8
-140 10 -19 2 -75 7 -125 10 -49 4 -101 8 -115 10 -14 2 -61 7 -105 11 -44 3
-88 8 -99 10 -10 2 -44 6 -75 9 -59 7 -438 54 -481 60 -14 2 -41 6 -60 9 -54
7 -241 36 -275 42 -16 3 -43 7 -60 10 -16 2 -55 9 -85 14 -30 5 -68 12 -85 15
-36 6 -281 50 -385 70 -41 8 -163 32 -270 55 -236 50 -216 46 -265 59 -22 5
-56 13 -75 16 -19 3 -62 13 -95 22 -33 8 -69 17 -80 19 -72 14 -738 189 -827
217 -23 8 -86 27 -138 42 -328 95 -926 292 -1215 400 -38 14 -117 44 -175 65
-144 53 -391 148 -415 160 -11 5 -71 30 -133 55 -152 61 -233 94 -257 105 -11
5 -85 37 -165 71 -135 57 -451 199 -635 284 -168 78 -567 278 -735 368 -293
157 -335 180 -345 188 -5 4 -37 22 -70 39 -33 18 -67 39 -76 46 -8 8 -19 14
-22 14 -4 0 -85 47 -180 104 -176 106 -221 134 -399 246 -118 74 -580 382
-620 414 -14 11 -49 37 -78 56 -28 19 -70 49 -93 66 -150 111 -403 299 -416
310 -9 7 -110 88 -226 180 -279 223 -706 587 -836 713 -9 9 -67 63 -130 121
-296 273 -847 840 -1102 1134 -10 12 -33 37 -50 56 -18 19 -70 80 -117 135
-47 55 -87 102 -90 105 -24 22 -349 426 -450 560 -36 47 -67 87 -70 90 -3 3
-30 39 -60 80 -68 94 -65 89 -94 125 -13 17 -36 48 -52 71 -16 23 -86 122
-155 220 -174 247 -368 541 -502 759 -84 135 -347 576 -347 580 0 2 -20 37
-44 78 -24 41 -74 130 -111 198 -37 68 -80 147 -95 174 -104 192 -314 606
-380 750 -18 39 -51 111 -75 160 -23 50 -59 128 -80 175 -21 47 -50 112 -66
146 -34 75 -154 366 -221 534 -117 293 -302 823 -373 1065 -15 50 -40 135 -56
190 -36 120 -110 396 -124 460 -2 11 -11 49 -20 85 -21 84 -25 100 -31 130 -3
14 -16 72 -29 130 -12 58 -26 123 -31 145 -4 22 -8 45 -10 50 -2 10 -40 215
-49 265 -29 172 -31 187 -40 250 -3 25 -8 56 -10 70 -11 67 -36 263 -50 405
-3 33 -8 78 -10 100 -3 22 -7 76 -10 120 -3 44 -7 103 -10 130 -9 115 -18 384
-18 590 -1 330 17 671 48 935 18 148 42 332 51 380 2 14 8 52 14 85 5 33 12
69 14 80 2 11 11 61 21 110 9 50 32 160 51 245 19 85 37 164 39 175 3 11 25
94 50 185 25 91 47 172 49 181 54 208 263 782 368 1009 11 25 38 85 59 133 91
207 368 726 473 887 13 19 59 91 102 160 86 136 206 310 317 460 110 147 366
465 401 495 6 6 38 42 71 80 142 166 458 482 650 650 37 33 91 80 119 105 176
156 523 417 775 584 142 95 418 266 427 266 3 0 21 11 42 23 20 13 69 41 107
62 39 21 93 50 120 65 249 137 638 313 965 437 73 28 467 163 490 168 8 2 44
13 80 24 54 16 174 50 240 67 8 2 58 15 110 28 52 14 106 27 120 29 14 3 43
10 65 15 22 6 51 13 65 16 14 3 92 18 173 35 81 17 169 33 195 37 26 3 56 8
67 10 11 3 36 7 55 10 19 2 46 7 60 9 21 4 177 25 300 40 43 5 119 12 225 21
44 4 94 8 110 10 246 23 968 23 1195 -1 19 -2 75 -6 123 -10 48 -3 96 -8 105
-9 9 -2 51 -7 92 -11 41 -4 82 -9 90 -10 8 -2 42 -6 75 -9 33 -4 67 -9 75 -11
8 -2 36 -6 61 -9 26 -3 98 -14 160 -25 63 -11 130 -23 149 -26 252 -43 738
-167 1040 -265 119 -39 345 -118 385 -135 17 -7 62 -25 100 -40 39 -15 84 -33
100 -40 17 -7 100 -43 185 -80 557 -241 1121 -570 1635 -956 168 -125 460
-359 485 -388 3 -3 48 -44 100 -91 124 -110 418 -397 505 -494 6 -6 40 -43 75
-81 36 -39 79 -86 95 -106 85 -97 144 -166 161 -188 10 -13 27 -32 36 -42 73
-78 384 -501 510 -694 42 -66 81 -124 86 -130 21 -27 176 -292 215 -371 62
-121 208 -427 211 -439 1 -5 7 -19 13 -30 39 -72 234 -554 313 -775 119 -333
268 -823 305 -1003 2 -10 6 -26 9 -35 3 -9 7 -28 10 -42 2 -14 9 -43 14 -65
10 -37 38 -166 49 -225 2 -14 10 -56 18 -95 16 -82 42 -233 50 -290 2 -22 7
-51 10 -65 6 -29 12 -75 20 -150 4 -30 8 -66 10 -80 4 -26 14 -127 20 -215 3
-27 8 -95 12 -150 16 -199 8 -914 -12 -1090 -2 -16 -6 -64 -10 -105 -3 -41 -8
-91 -10 -110 -8 -69 -17 -145 -20 -170 -2 -14 -7 -50 -10 -80 -4 -30 -9 -62
-10 -70 -2 -14 -11 -69 -21 -132 -2 -16 -6 -43 -9 -60 -3 -18 -8 -46 -11 -63
-4 -25 -60 -306 -68 -340 -1 -5 -8 -37 -15 -70 -29 -133 -148 -574 -171 -630
-4 -11 -27 -78 -50 -150 -23 -71 -45 -139 -50 -150 -5 -11 -26 -65 -46 -120
-20 -55 -41 -111 -47 -125 -6 -14 -11 -29 -13 -35 -3 -16 -92 -223 -125 -293
-16 -35 -29 -65 -29 -68 0 -9 -207 -427 -250 -504 -23 -41 -58 -104 -78 -140
-19 -36 -59 -105 -89 -153 -29 -49 -53 -90 -53 -93 0 -3 -9 -17 -19 -32 -10
-15 -71 -106 -134 -202 -166 -252 -348 -503 -488 -672 -34 -40 -77 -93 -97
-118 -239 -292 -637 -690 -1002 -1001 -942 -803 -2092 -1398 -3300 -1708 -85
-22 -162 -42 -170 -45 -8 -3 -26 -7 -40 -10 -14 -3 -77 -16 -142 -30 -139 -30
-402 -77 -503 -90 -215 -29 -338 -43 -430 -52 -38 -3 -86 -7 -105 -9 -19 -2
-89 -7 -155 -10 -149 -8 -156 -10 -124 -35 258 -205 550 -430 654 -505 260
-188 442 -317 483 -340 9 -5 19 -13 22 -16 5 -6 240 -160 297 -195 490 -297
487 -295 792 -459 130 -69 526 -265 536 -265 2 0 43 -18 90 -40 101 -47 341
-150 350 -150 3 0 24 -9 48 -19 181 -83 940 -343 1101 -376 10 -3 33 -9 51
-15 18 -6 41 -12 51 -15 10 -2 111 -26 224 -54 113 -29 214 -53 225 -55 11 -2
76 -15 145 -30 69 -14 139 -28 155 -31 137 -25 246 -45 280 -50 39 -5 143 -22
195 -30 14 -2 46 -6 72 -9 26 -3 58 -8 70 -10 13 -3 50 -8 83 -11 33 -4 74 -8
90 -10 132 -16 292 -31 430 -41 50 -3 108 -7 130 -9 268 -23 1091 -23 1365 0
25 2 92 6 150 10 58 4 121 8 140 10 76 6 276 26 300 30 14 2 55 6 92 10 37 3
75 7 85 9 10 2 43 7 74 10 31 4 67 9 80 11 13 3 49 8 79 11 30 3 62 7 70 9 8
2 38 7 65 10 28 4 109 17 180 30 72 13 146 27 165 30 19 3 53 10 75 15 22 5
56 12 75 15 19 3 82 17 139 31 57 13 116 26 132 29 15 3 39 9 53 15 15 5 26 8
26 5 0 -2 18 2 40 10 22 8 41 14 43 14 20 -4 629 176 712 210 11 5 67 25 125
46 193 68 548 211 690 277 36 17 99 46 140 65 260 120 620 312 900 480 218
132 634 406 725 480 6 4 71 53 144 108 74 55 151 114 172 130 20 17 53 44 74
60 50 38 218 177 225 184 3 3 32 28 65 56 33 27 62 52 65 56 3 3 30 27 60 54
198 173 580 548 755 739 50 55 97 106 105 115 44 46 172 194 294 341 75 91
142 172 149 180 6 8 25 32 41 55 16 22 32 42 36 45 4 3 60 77 125 165 65 88
132 177 148 199 67 87 400 594 504 766 330 550 605 1099 837 1675 32 77 61
149 66 160 50 115 228 631 307 895 49 164 185 674 197 740 3 14 7 34 9 45 8
34 66 308 71 335 16 85 26 139 31 165 7 40 13 75 30 170 8 44 17 100 20 125 3
25 11 74 16 110 6 36 13 80 15 99 2 19 5 48 8 65 3 17 8 58 12 91 3 33 8 67 9
75 2 8 6 51 10 95 4 44 8 90 10 103 2 13 7 65 11 115 3 51 8 99 9 107 3 14 13
171 21 310 23 434 23 1218 0 1590 -2 30 -7 111 -11 180 -3 69 -8 141 -10 160
-2 19 -6 71 -10 115 -3 44 -8 100 -10 125 -2 25 -7 74 -10 110 -3 36 -8 76
-10 90 -2 14 -7 59 -10 100 -4 41 -8 82 -10 90 -2 8 -6 49 -10 90 -4 41 -9 82
-10 91 -3 14 -9 59 -21 154 -7 57 -29 205 -38 261 -3 17 -8 46 -10 65 -4 30
-13 85 -31 194 -3 17 -10 59 -16 95 -6 36 -15 85 -20 110 -5 25 -25 128 -45
230 -41 217 -42 221 -55 280 -6 25 -12 52 -14 60 -38 178 -136 585 -184 760
-11 41 -27 102 -36 135 -36 134 -118 411 -170 575 -30 96 -57 182 -59 190 -24
90 -271 789 -317 895 -5 11 -29 72 -53 135 -57 150 -172 427 -246 595 -10 22
-32 74 -50 115 -18 41 -52 117 -76 168 -24 52 -44 95 -44 97 0 7 -115 246
-236 490 -224 451 -398 775 -629 1166 -54 90 -106 179 -116 197 -22 38 -180
294 -248 400 -139 219 -519 784 -566 839 -5 7 -26 35 -45 64 -41 60 -460 622
-469 629 -4 3 -37 45 -75 93 -37 49 -123 155 -190 236 -66 81 -137 167 -156
191 -19 24 -40 48 -45 54 -6 6 -64 74 -130 151 -66 77 -127 147 -135 155 -8 9
-30 34 -49 55 -54 63 -275 305 -406 445 -94 100 -672 678 -765 765 -36 34
-101 94 -145 135 -44 40 -105 96 -135 125 -44 41 -305 270 -420 369 -39 33
-328 273 -395 327 -161 130 -299 237 -505 391 -124 92 -229 171 -235 176 -107
83 -670 468 -865 591 -47 30 -114 73 -150 96 -72 47 -363 224 -425 260 -22 13
-125 72 -230 132 -171 99 -260 148 -535 297 -83 45 -646 326 -785 391 -137 65
-231 108 -310 142 -44 20 -98 43 -120 53 -659 294 -1675 655 -2362 840 -40 11
-108 29 -150 41 -43 11 -85 22 -93 24 -8 2 -60 16 -115 30 -55 15 -107 28
-115 30 -50 11 -179 37 -200 41 -14 2 -34 6 -46 9 -12 3 -39 7 -60 11 -109 16
-490 97 -569 120 -91 26 -106 30 -160 39 -16 3 -61 12 -100 20 -120 24 -395
72 -461 80 -21 3 -46 7 -54 10 -8 2 -33 6 -55 9 -46 6 -237 34 -275 40 -14 2
-52 7 -85 11 -32 4 -66 8 -75 10 -8 1 -45 6 -82 9 -37 4 -77 9 -90 11 -13 2
-50 6 -83 10 -33 3 -78 8 -100 10 -60 7 -127 14 -300 30 -27 2 -86 7 -130 10
-44 4 -99 8 -121 10 -107 10 -386 26 -714 41 -132 6 -1118 13 -1123 8z"/>
</g>
</svg>
